<?xml version="1.0" encoding="UTF-8"?>
<svg id="Layer_1" data-name="Layer 1" xmlns="http://www.w3.org/2000/svg" version="1.1" viewBox="0 0 612 150.48">
  <defs>
    <style>
      .cls-1 {
        fill: none;
      }

      .cls-1, .cls-2, .cls-3 {
        stroke-width: 0px;
      }

      .cls-2 {
        fill: #f8991d;
      }

      .cls-3 {
        fill: #010101;
      }
    </style>
  </defs>
  <rect class="cls-2" x="-.05" y="-.14" width="613.07" height="150.48"/>
  <g>
    <path class="cls-1" d="M54.46,104.97c-.65.43-1.4,1-2.04,1.58l-.23.21c.45.42,1.15.92,2.2,1.44.27.13.55.24.84.34-.86-1.02-.85-2.38-.77-3.56Z"/>
    <path class="cls-1" d="M56.92,82.37c-.17.2-.15.31-.14.39.06.32.11.65.14,1,1.14-.83,2.01-1.59,2.65-2.22-.07,0-.14,0-.21-.01-1.09-.05-2.06.39-2.45.84Z"/>
    <path class="cls-1" d="M35.39,105s-.03.04-.05.05c-.13.14-.28.31-.46.49.84-.19,1.76-.2,2.7.05.28-.36.52-.67.72-.9.02-.05.04-.1.06-.16-.87.3-1.91.58-2.98.47Z"/>
    <path class="cls-1" d="M82.91,127.22s.07.01.1.01c.04-.06.09-.12.15-.19-.27.05-.57.08-.88.09.24.02.45.05.63.08Z"/>
    <path class="cls-1" d="M86.92,125.53s.1,0,.15,0c.14-.11.31-.26.51-.43-.49.09-.85.23-1.18.4.2,0,.37.01.52.02Z"/>
  </g>
  <g>
    <path class="cls-3" d="M40.52,96.05c-1.17.89-5.1,2.75-6.29,3.05s-3.05-1.16-5.14-.27-2.75,2.91-2.09,4.47c.67,1.56,3.28,2.14,5.07,1.54s1.83-2.31,3.32-2.01,3.43-.97,4.33-.97c.33-2,.5-4.17.8-5.81Z"/>
    <path class="cls-3" d="M37.04,107.68c-1.56-.45-3.12.39-3.68,1.29-.56.89-1.05,2.67.9,3.33.7-1.69,1.67-3.06,2.78-4.62Z"/>
    <path class="cls-3" d="M74.5,78.66c-5.48-4.72-6.47-6.91-8.25-7.46-1.78-.56-5.35-.95-6.74-.84-1.39.11-2.95-3.06-5.07-3.01-2.12.06-4.46-.28-6.52,3.12-2.06,3.4-3.84,8.85-4.9,16.37-1.06,7.52-1.89,17.93-3.01,19.16-1.11,1.22-4.51,6.18-5.29,8.46-.78,2.28-2.12,4.96-4.73,6.68-2.62,1.73-4.96,3.17-6.01,3.45-1.06.28-3.34-.56-5.12.39-2.24,1.19-3.11,3.48-1.84,5.46,1.11,1.73,4.01,2.34,5.85,1.28,1.84-1.06,2.07-3.52,2.35-3.69.28-.17,2.78-1.2,4.62-1.09,1.84.11,3.44-1.07,4.17-2.07.72-1,1.89-2.73,3.79-2.39,1.89.33,1.45,2.67.95,3.79-.5,1.11,2.73,1.84,1.56,2.67-1.17.84-2.73,2.62-2.17,4.29.56,1.67,3.17,2.67,5.24,2.51,1.96-.16,4.98-1.75,4.79-3.95-.17-1.89-1.17-2.62-1.67-2.9,0,0,.06-1.45.28-3.12.22-1.67,1.17-3.51,3.84-3.9,2.67-.39,4.46,0,5.79,1.84,1.34,1.84,3.9,2.73,5.96,2.67,3.1-.08,5.29-2.42,5.12-4.23-.17-1.78-2.5-3.06-4.5-3-2,.06-4.46.05-6.25-1.06-1.78-1.11-2.23-2.45-.39-2.39,1.84.06,3.9.33,4.57.22.67-.11,2.34-2.56.33-3.68-2-1.11-5.18-.84-7.8-2.12-2.62-1.28-4.29-2.95-4.01-4.73.28-1.78,2.73-9.58,4.01-12.92s1.67-7.02,1.23-9.3c-.45-2.28,2.23-3.9,4.79-3.79,2.56.11,6.18,1.17,8.85.95,2.67-.22,4.63-.72,6.19-1.67Z"/>
    <path class="cls-3" d="M105.79,89.08c-4.71-1.57-10.77-2.2-13.55-2.36-2.78-.16-4.27-.36-6.5-1.48-2.23-1.11-7.3-3.56-10.02-5.46-1.17.73-3.54,1.73-6.48,2.02-2.53.25-4.67,0-6.55-.51,0,0-1.89,2.73-6.52,5.57,0,0,.06,1.56-.72,4.23-.78,2.67-2.56,6.86-3.56,10.25-.39,1.31-1,2.78-.89,3.62,0,0,3.68-3.29,5.07-2.78,1.39.5-.11,4.12.89,5.07s2.67,2.12,2.62,3.06c0,0,2.03.29,2.86.96.92.74,1.19,1.54,1.14,2.04,0,0,3.24-.27,4.02-2.33s0-4.4-1.84-4.9c-1.84-.5-2.67-1.06-3.4-4.9,0,0,1.11-.45,1.84-1.34.72-.89.33-2.39,1.17-2.84.84-.45,3.01-.78,4.12-.11,1.11.67,1.67,2.17,4.46,2.45,2.78.28,4.68-1.89,4.46-3.45-.22-1.56-1.5-1.89-2.62-1.73-1.11.17-2.62,0-3.34-.5-.72-.5-1.5-1.11-2.62-1.23,0,0,3.45-2.23,5.96-2.78,2.51-.56,3.4-.45,4.68.61,1.28,1.06,8.13,2.23,14.76,1.67,6.63-.56,10.58-2.84,10.58-2.84Z"/>
    <path class="cls-3" d="M113.2,90.09c.17,4.34-.9,9.79-2.07,13.35-1.17,3.56-4.46,9.63-5.62,10.41s-1.17-.39-1.89-1.17c-.72-.78-2.62-.78-3.9-.11-1.28.67-2.23,3.12-.06,4.18,0,0-1.28.28-2.73,1-1.45.72-2.39,1.89-3.56,1.45-1.17-.45-1.78-1.56-3.4-1.62s-4.23,1.73-4.85,1.67-1.11-1.45-3.68-1.39c-2.56.06-4.4,2.28-4.12,4.07.28,1.78,2.39,3.12,4.79,3.06,2.39-.06,2.51-1.84,5.96-2.12s3.84,1.17,3.84,1.17c0,0-2.84,2.67-3.73,3.34-.89.67-1.78-.06-2.78.5-1,.56-.78,1.78-2.84,1.45s-7.02.17-7.07,3.79c-.06,3.62,3.73,4.85,6.4,4.29,2.67-.56,3.62-2.73,3.62-3.4s3.56-1,6.52-2.06c2.95-1.06,5.68-2.95,6.46-1.45.78,1.5-.11,3.23-.78,3.23s-2.84,1.56-2.56,3.9c.28,2.34,2.95,3.73,6.01,3.34,3.06-.39,5.29-2.23,5.07-4.07-.22-1.84-1.73-2.12-1.95-2.51-.22-.39.56-1.78,1.11-2.67.56-.89,1.39-2.73,1.39-3.4s4.01-1.84,6.35-3.79c2.34-1.95,3.12-2.45,3.23-4.57s1.34-7.02,2.17-9.02c.84-2,3.9-10.3,5.51-14.31,1.62-4.01,2.67-6.29,2.39-7.74-.28-1.45-1.52-2.64-1.52-2.64-.48,1.1-1.69,2.14-3.33,2.83s-4.67,1.34-8.4.99Z"/>
    <path class="cls-3" d="M130.57,74.54c3.23,2.06,10.02,7.69,10.92,11.14.89,3.45.67,4.68,1.45,5.35.78.67,2.78,1.56,3.4,3.51.61,1.95.78,4.12,3.06,5.79,2.28,1.67,6.91,3.62,8.47,3.73,1.56.11,3.45,1.17,3.73,1.78,0,0,1.25-.86,3.97-.25,2.73.61,4.49,1.92,4.21,3.76-.28,1.84-2.84,3.34-5.51,2.95-2.67-.39-4.12-1.84-4.23-2.9-.11-1.06-2.84-1.89-4.51-1.62s-6.93.07-8.49-1.1c0,0-1.93,1.61-1.71,3.61.16,1.39,1.72.78,1.95,3.17.17,1.78-1.89,4.18-5.35,3.9s-4.79-1.95-4.85-3.51c-.08-2.33,2.32-3.25,2.56-3.9.17-.45-.61-3.34-1.56-3.68-.95-.33-3.82.25-6.57-.28-.93-.18-2.62.95-2.62,1.73s-.57,3.29-3.08,3.62c-2.51.33-4.25-.55-4.42-2.33-.18-1.91,1.48-3.41,2.86-3.51,1.17-.09.89-2.23,1.89-2.45,1-.22,2.86-.56,2.13-1.51-.72-.95-1.76-1.79-4.16-.68.7-1.89,1.06-2.97,1.69-4.27,0,0,.57.05,1.58-1.12,1-1.17,1.11-2.34,2.12-2.39s.28-2.39-1.67-2.51c0,0,.61-1.45.11-2.56-.5-1.11-.89-1.6-1.44-2.55,1.64-.37,2.68-1.34,3.53-3.23.61-1.36.8-4.82.53-7.7Z"/>
    <path class="cls-3" d="M112.76,19.79c-2.19-.5-5.37.5-7.15,1.44-.3-1.54-.2-3.23.75-4.77.94-1.54,1.79-2.01,2.53-2.16.45-.09.81.07,1,.52,1.94-.65,7.35-.94,10.73,2.98s1.89,8.55.94,10.38c-.45-.2-.94-.4-1.44-.45.75-1.64,1.59-4.17.7-5.96,0,0-.5,1.59-1.19,2.68,0,0-1.49-2.68-2.88-4.57s-1.59-3.58-1.59-3.58c-.99-.4-3.15-.57-4.45-.07l2.06,3.55Z"/>
    <path class="cls-3" d="M116.73,43.24c-.2-2.29-1.39-2.88-2.88-1.49-1.49,1.39-2.68,3.08-3.88,3.38s-4.57.7-6.66,4.57c0,0,2.58,1.09,3.28,5.17.7,4.07-2.19,6.76-2.19,6.76,0,0,2.78-.3,6.36,1.69,3.58,1.99,6.76,8.15,8.05,10.53s5.07,3.68,6.16-.2c0,0,2.38,5.46-1.09,5.37s-10.33-8.84-13.61-10.43c-3.28-1.59-7.25-2.38-13.22-.8-5.96,1.59-9.74,3.08-13.51,2.19,0,0-.7,4.17,6.56,6.36,0,0-7.25.6-10.13-3.68-2.88-4.27-4.77-7.75-6.66-8.35-1.89-.6-2.58-1.59-.2-2.19s10.13-5.86,15.1-9.44c4.97-3.58,13.02-8.15,16.39-9.04s4.87-.5,4.87-.5c0,0,1.79-2.48,4.67-3.48,2.88-.99,5.37-3.08,6.06-5.27,0,0,.7,2.88-.89,5.27s-2.58,3.58-2.58,3.58Z"/>
    <path class="cls-3" d="M105.7,79.61c2.88.5,6.76,2.58,8.74,2.98s4.47-1.09,3.88-2.68-2.19-.6-3.78.3-8.84-.6-8.84-.6Z"/>
    <path class="cls-3" d="M128.65,69.97c-.8-2.88-3.58-10.53-4.97-13.02-1.39-2.48-3.87-11.13-3.18-12.42.7-1.29,4.27-6.36,3.68-10.53-.6-4.17-4.27-5.17-5.46-5.17s-2.48-6.46-5.56-7.25c-3.08-.79-5.76.4-7.45,1.49,0,0-.99-1.39-5.56-.4s-12.82,5.07-14.51,5.07-6.52-2.46-10.09-3.23c-4.62-.99-12.17,1.24-14.56,8-2.38,6.76,1.29,11.43,1.19,12.82-.1,1.39-1.89,4.47-2.09,6.46-.2,1.99.94,3.97-.15,5.51-1.1,1.56-2.14,2.63-1.94,5.51.2,2.88,1.59,5.12,3.43,5.37,1.97.27,4.82-.1,6.31,1.69s7.89,8.11,10.98,9.99c3.18,1.94,9.38,4.95,11.97,5.07,3.17.15,10.39.93,14.16,2.14,3.73,1.19,9.43,1.65,12.77,1.09,4.17-.7,5.37-2.19,5.86-3.48,2.58-.4,5.17-1.39,5.46-4.67.3-3.28.5-7.15-.3-10.04ZM113.11,23.56c2.24.89.15,4.43.15,4.43-1.04-1.97-1.34-4.91-.15-4.43ZM103.12,25.85c2.38,0,3.58,4.17,3.58,4.17-2.09-2.38-3.73-2.38-5.22-2.53-1.49-.15-.75-1.64,1.64-1.64ZM72.84,27.14c5.18,0,9.44,3.96,9.92,9.02-1.44,3.19-4.01,6.13-7.49,8.18-1.79,1.06-3.67,1.79-5.55,2.22-3.97-1.31-6.83-5.05-6.83-9.46,0-5.5,4.46-9.96,9.96-9.96ZM126.96,79.91c-1.09,1.39-3.18,1.29-3.18,1.29,0,0-.4,2.48-3.88,3.88-3.48,1.39-9.64.3-17.69-1.99s-13.91-2.09-18.28-2.78-8.05-6.16-9.74-9.14c-1.69-2.98-3.28-4.87-6.06-6.06-2.78-1.19-3.68-4.17-3.68-4.17,5.17.5,13.31-4.77,22.16-10.83,8.84-6.06,13.81-10.04,15.8-11.33,1.99-1.29,3.58-2.29,5.66-2.19,1.88.09,4.57-.89,5.86-3.18,0,0,1.39.7,2.98.3,1.59-.4,1.79-2.48,4.27-.89,2.48,1.59.2,7.95-1.49,9.94s-.5,4.67.5,8.64c.99,3.97,4.07,10.04,6.36,15.6,2.29,5.56,1.49,11.53.4,12.92Z"/>
    <path class="cls-3" d="M75.81,33.99c-1.03-3.17-5.42-3.27-5.42-3.27,0,0-3.64,3.17-1.96,6.63,1.68,3.45,5.6,4.2,5.6,4.2,0,0,2.8-4.39,1.77-7.56ZM73.8,38.27c-.66,0-1.19-.53-1.19-1.19s.53-1.19,1.19-1.19,1.19.53,1.19,1.19-.53,1.19-1.19,1.19Z"/>
  </g>
  <g>
    <path class="cls-3" d="M183.77,80.51h2.37v-10.18h-2.37v-15.03h30.01c11.42,0,16.51,3.49,16.51,11.36,0,4.14-1.36,6.87-4.38,8.46v.24c3.37,1.54,4.97,4.32,4.97,8.82,0,7.93-4.97,11.36-16.51,11.36h-30.6v-15.03ZM207.5,71.81c2.01,0,2.84-.65,2.84-2.25s-.83-2.25-2.84-2.25h-2.31v4.5h2.31ZM207.8,83.53c2.01,0,2.84-.65,2.84-2.25s-.83-2.25-2.84-2.25h-2.6v4.5h2.6Z"/>
    <path class="cls-3" d="M232.6,80.51h2.19v-11.66h-2.19v-15.03h20.3v26.69h2.19v15.03h-22.49v-15.03Z"/>
    <path class="cls-3" d="M256.45,88.09c0-5.8,3.67-8.29,12.07-8.29,3.02,0,5.62.3,7.99,1.01v-6.75c0-2.72-.53-4.38-1.83-5.5l-.24.12c.35.83.53,1.95.53,3.14,0,5.03-3.2,7.75-8.52,7.75s-8.88-2.84-8.88-7.93c0-6.93,6.27-10.3,18.23-10.3,12.96,0,18.82,3.97,18.82,12.67v6.51h2.19v14.68c-2.49.89-5.5,1.3-8.76,1.3-5.21,0-8.29-1.07-9.53-3.37h-.24c-2.54,2.25-6.27,3.37-10.95,3.37-7.34,0-10.89-2.72-10.89-8.41ZM276.52,88.74v-3.2c-.3-.47-.95-.71-1.6-.71-1.12,0-1.72.83-1.72,2.37s.59,2.31,1.72,2.31c.71,0,1.3-.3,1.6-.77Z"/>
    <path class="cls-3" d="M298.3,78.74c0-11.31,7.28-17.4,20.72-17.4,10.42,0,15.92,3.67,15.92,10.54,0,5.27-3.25,8.35-8.76,8.35s-8.29-2.78-8.29-7.34c0-.65.06-1.12.12-1.6l-.24-.06c-.59,1.18-.89,2.6-.89,4.14,0,5.03,3.14,7.64,9.47,7.64,2.54,0,5.03-.41,7.22-1.3l1.54,12.43c-3.37,1.54-8.46,2.37-14.03,2.37-15.03,0-22.79-6.04-22.79-17.76Z"/>
    <path class="cls-3" d="M361.81,90.58l-4.32-8.05h-.24v1.07c0,2.84.59,4.97,2.19,7.93v4.02h-22.49v-15.03h2.19v-11.66h-2.19v-15.03h20.3v23.5h.24l4.14-4.97h-2.19v-10.06h20.83v15.03h-5.21l1.42,2.13c.83,1.24,1.54,1.54,2.84,1.54.59,0,1.18-.06,1.72-.18v14.74c-2.31.65-4.56.95-7.1.95-5.86,0-9.83-1.6-12.13-5.92Z"/>
    <path class="cls-3" d="M383.24,80.51h2.19v-3.2h-2.19v-15.03h19.24v1.07c-.89,1.36-1.24,3.14-1.42,6.04h.24c1.42-5.09,5.09-8.05,10.54-8.05,5.74,0,9.23,3.31,9.23,8.76s-3.31,8.82-8.82,8.82c-4.2,0-7.22-2.01-8.46-5.74h-.24v7.34h4.97v15.03h-25.27v-15.03Z"/>
    <path class="cls-3" d="M422.31,80.51h2.19v-3.2h-2.19v-7.81c2.19,1.95,6.27,3.2,10.83,3.2,3.49,0,6.63-.71,9.47-2.19v10h2.19v15.03h-22.49v-15.03ZM422.84,61.81c0-5.45,3.97-8.94,10.24-8.94s10.24,3.49,10.24,8.94-3.97,8.94-10.24,8.94-10.24-3.49-10.24-8.94Z"/>
    <path class="cls-3" d="M465.58,89.57h-.24v5.98h-17.52v-26.69h-2.19v-15.03h20.3v14.44h.24c1.83-4.5,5.27-6.92,10.12-6.92,7.93,0,12.61,6.39,12.61,17.64s-4.62,17.52-12.84,17.52c-5.03,0-8.58-2.37-10.48-6.93ZM469.96,78.91c0-2.84-.65-4.08-2.07-4.08-.83,0-1.54.41-1.95,1.12v5.86c.41.77,1.12,1.18,1.95,1.18,1.42,0,2.07-1.24,2.07-4.08Z"/>
    <path class="cls-3" d="M508.96,89.57h-.24v5.98h-17.52v-26.69h-2.19v-15.03h20.3v14.44h.24c1.83-4.5,5.27-6.92,10.12-6.92,7.93,0,12.61,6.39,12.61,17.64s-4.62,17.52-12.84,17.52c-5.03,0-8.58-2.37-10.48-6.93ZM513.34,78.91c0-2.84-.65-4.08-2.07-4.08-.83,0-1.54.41-1.95,1.12v5.86c.41.77,1.12,1.18,1.95,1.18,1.42,0,2.07-1.24,2.07-4.08Z"/>
    <path class="cls-3" d="M534.06,80.51h2.19v-3.2h-2.19v-7.81c2.19,1.95,6.27,3.2,10.83,3.2,3.49,0,6.63-.71,9.47-2.19v10h2.19v15.03h-22.49v-15.03ZM534.59,61.81c0-5.45,3.97-8.94,10.24-8.94s10.24,3.49,10.24,8.94-3.97,8.94-10.24,8.94-10.24-3.49-10.24-8.94Z"/>
    <path class="cls-3" d="M559.57,86.31v-9h-2.19v-13.26c3.49-.59,5.45-3.2,6.63-8.76h13.5v6.98h6.16v15.03h-6.16v1.72c0,1.54.83,2.01,2.78,2.01.65,0,1.6-.06,2.78-.36l.89,14.5c-2.6.83-6.21,1.3-10.42,1.3-10.18,0-13.97-2.72-13.97-10.18Z"/>
  </g>
</svg>