<svg xmlns="http://www.w3.org/2000/svg" id="Layer_1" viewBox="0 0 716.19 405.17"><defs><style>      .st0 {        font-family: FuturaPT-Medium, 'Futura PT';        font-size: 14px;        font-weight: 500;      }      .st1 {        font-family: FuturaPT-Light, 'Futura PT';        font-size: 12px;        font-weight: 300;      }      .st2 {        stroke: #fff;        stroke-width: 1.48px;      }      .st2, .st3, .st4 {        fill: #f8991d;      }      .st2, .st5 {        stroke-miterlimit: 10;      }      .st6, .st7 {        fill: #231f20;      }      .st3, .st8, .st9 {        opacity: .5;      }      .st8 {        fill: #f6871f;      }      .st9 {        fill: #f3b682;      }      .st7 {        font-family: FuturaPT-Bold, 'Futura PT';        font-size: 24px;        font-weight: 700;        letter-spacing: -.05em;      }      .st5 {        fill: none;        stroke: #231f20;      }    </style></defs><circle class="st9" cx="359.13" cy="106.01" r="92.99"></circle><circle class="st8" cx="428.62" cy="223.97" r="92.99"></circle><circle class="st3" cx="289.64" cy="223.97" r="92.99"></circle><g><path class="st4" d="M363.99,95.23h-32.12c.14-1.24.27-2.44.4-3.65,0-.09.05-.18.04-.26-.16-1.45.71-2.16,1.87-2.7,1.41-.66,2.87-1.24,4.17-2.06,1.86-1.16,3.6-2.5,5.38-3.79.62-.45.67-1.6.24-2.25-1.26-1.92-2.57-3.83-3.25-6.07-.22-.71-.32-1.38.35-1.94.13-.11.13-.4.14-.62.04-1.26-.08-2.55.12-3.79.49-3,2.76-4.83,5.95-4.98,1.96-.09,3.81.22,5.36,1.55,1.33,1.14,1.91,2.64,1.97,4.35.03.98-.01,1.95.02,2.93,0,.24.11.52.27.69.36.38.5.81.33,1.28-.34.95-.65,1.93-1.12,2.82-.73,1.36-1.6,2.65-2.4,3.98-.31.51-.07,1.65.39,2.04,2.47,2.13,5.18,3.88,8.18,5.17.87.37,1.71.86,2.5,1.38.3.2.57.64.62,1,.23,1.6.39,3.21.58,4.9Z"></path><path class="st4" d="M365.01,62.8v26.57c-.52-.49-1.02-1.12-1.66-1.53-1.03-.65-2.14-1.16-3.24-1.7-.36-.18-.52-.38-.52-.8.01-5.88,0-11.77.02-17.65,0-.24.08-.54.23-.72,1.7-2.05,3.43-4.07,5.19-6.16.79.37,1.58.74,2.46,1.15,0-1.15.01-2.18-.02-3.22,0-.15-.18-.35-.33-.42-3.05-1.48-6.12-2.94-9.18-4.41-.04-.02-.09,0-.2,0v31.1c-.58-.38-1.05-.65-1.48-.97-.91-.67-1.8-1.38-2.71-2.04-.4-.29-.44-.51-.16-.96.94-1.53,1.85-3.08,2.67-4.67.38-.74.59-1.59.71-2.41.08-.53-.14-1.11-.26-1.67-.1-.46-.29-.9-.34-1.37-.13-1.25-.07-2.54-.32-3.76-.39-1.85-1.49-3.3-3.12-4.3-.32-.2-.45-.41-.45-.79.02-1.15,0-2.31.02-3.46,0-.22.07-.5.21-.66,1.72-2.06,3.46-4.1,5.22-6.17,2.73,1.31,5.45,2.61,8.17,3.92.96.46,1.91.95,2.88,1.37.39.17.5.4.5.81-.02,1.44,0,2.89-.02,4.33,0,.46.11.71.55.92,2.09.97,4.16,1.99,6.25,2.97.37.17.52.37.51.8-.03,1.2.01,2.4-.02,3.6-.01.44.13.67.54.85,2.25.99,4.48,2.04,6.74,3.02.53.23.69.52.69,1.09-.02,5.82-.02,11.64-.02,17.45,0,.29,0,.57,0,.88.28.05.51.09.77.14v1.24h-3.09c0-.24,0-.49,0-.75,0-5.84,0-11.68.01-17.52,0-.54-.15-.81-.66-1.04-2.88-1.27-5.74-2.58-8.61-3.88-.19-.09-.4-.16-.7-.28v23.47h-6.67c-.06-.41-.11-.8-.18-1.27.48-.03.93-.05,1.46-.08,0-.3,0-.56,0-.82,0-5.82,0-11.64-.01-17.45,0-.5.13-.87.48-1.23,1.65-1.7,3.28-3.43,4.94-5.17.8.36,1.59.7,2.49,1.11,0-.92.01-1.75-.01-2.58,0-.11-.17-.25-.3-.31-3.09-1.5-6.19-2.99-9.42-4.54Z"></path><path class="st4" d="M380.6,80.43c-1.96-.61-3.82-1.17-5.67-1.77-.16-.05-.35-.29-.36-.44-.03-.95-.02-1.9-.02-2.96.42.19.75.34,1.08.49,1.51.7,3.01,1.41,4.52,2.1.33.15.47.33.45.7-.03.6,0,1.19,0,1.89Z"></path><path class="st4" d="M380.54,95.14h-5.95v-2.66h5.95v2.66Z"></path><path class="st4" d="M374.58,84.39v-3.12c1.95.52,3.85,1.03,5.75,1.56.11.03.25.24.26.37.03.59.01,1.19.01,1.88-2.03-.23-3.99-.46-6.01-.69Z"></path><path class="st4" d="M374.58,89.7v-2.75c2.01.17,3.98.33,5.98.5v2.25h-5.98Z"></path></g><polygon class="st2" points="359.06 162.44 378.65 196.92 339.7 196.92 359.06 162.44"></polygon><text class="st6" transform="translate(513.18 116.9)"><tspan class="st0"><tspan x="0" y="0">Company Purpose</tspan></tspan><tspan class="st1"><tspan x="0" y="16.4">Vision, mission, values, pillars, tone </tspan></tspan><tspan class="st1"><tspan x="0" y="28.8">of voice, messaging</tspan></tspan></text><text class="st6" transform="translate(553.75 245.76)"><tspan class="st0"><tspan x="0" y="0">Customer Purpose</tspan></tspan><tspan class="st1"><tspan x="0" y="16.4">External Brand Stategy</tspan></tspan><tspan class="st1"><tspan x="0" y="28.8">Customer Value Proposition (CVP)</tspan></tspan></text><text class="st7" transform="translate(322.8 121.62)"><tspan x="0" y="0">INSIDE</tspan></text><g><line class="st5" x1="402.06" y1="113.62" x2="503.63" y2="113.62"></line><circle class="st6" cx="402.16" cy="113.62" r="1.88"></circle><circle class="st6" cx="503.54" cy="113.62" r="1.88"></circle></g><text class="st6" transform="translate(320.11 357.63)"><tspan class="st0"><tspan x="0" y="0">Brand Totality</tspan></tspan><tspan class="st1"><tspan x="-18.42" y="16.4">Defined Culture, Purpose, </tspan></tspan><tspan class="st1"><tspan x="-2.8" y="28.8">Difference, Identity</tspan></tspan></text><g><line class="st5" x1="359.13" y1="185.54" x2="359.13" y2="337.15"></line><path class="st6" d="M357.25,185.63c0-1.04.84-1.88,1.88-1.88s1.88.84,1.88,1.88-.84,1.88-1.88,1.88-1.88-.84-1.88-1.88Z"></path><circle class="st6" cx="359.13" cy="337.05" r="1.88"></circle></g><g><line class="st5" x1="545.63" y1="241.72" x2="484.09" y2="241.72"></line><circle class="st6" cx="545.54" cy="241.72" r="1.88"></circle><circle class="st6" cx="484.18" cy="241.72" r="1.88"></circle></g><text class="st6" transform="translate(56.92 245.76)"><tspan class="st0"><tspan x="0" y="0">Employee Purpose</tspan></tspan><tspan class="st1"><tspan x="0" y="16.4">Internal Brand Strategy</tspan></tspan><tspan class="st1"><tspan x="-48.91" y="28.8">Employee Value Proposition (EVP)</tspan></tspan></text><g><line class="st5" x1="269.43" y1="241.72" x2="167.86" y2="241.72"></line><path class="st6" d="M269.33,239.84c1.04,0,1.88.84,1.88,1.88s-.84,1.88-1.88,1.88-1.88-.84-1.88-1.88.84-1.88,1.88-1.88Z"></path><path class="st6" d="M167.95,239.84c-1.04,0-1.88.84-1.88,1.88s.84,1.88,1.88,1.88,1.88-.84,1.88-1.88-.84-1.88-1.88-1.88Z"></path></g><g><text class="st7" transform="translate(385.61 249.34)"><tspan x="0" y="0">OUTSIDE</tspan></text><g><path class="st4" d="M407.78,192.58c1.65-.22,3.3-.49,4.96-.65.78-.07,1.16-.41,1.47-1.1.62-1.4,1.34-2.75,2.05-4.19.09.16.16.26.22.38.72,1.45,1.45,2.9,2.15,4.37.14.29.33.42.64.46,1.56.21,3.12.44,4.69.66.16.02.32.06.53.11-.13.14-.23.25-.33.35-1.15,1.13-2.3,2.26-3.46,3.37-.22.21-.28.41-.22.71.3,1.64.58,3.28.86,4.93.01.07,0,.15,0,.29-.68-.35-1.32-.69-1.97-1.03-.92-.48-1.84-.96-2.75-1.45-.24-.13-.42-.13-.66,0-1.55.83-3.11,1.64-4.76,2.5.09-.55.16-1.03.24-1.5.22-1.29.46-2.57.67-3.86.02-.13,0-.33-.08-.41-1.41-1.29-2.82-2.56-4.24-3.84,0-.03,0-.06,0-.09Z"></path><path class="st4" d="M440.42,223.67h-18.91s-.06-.06-.06-.08c.04-1.97-.2-3.95.17-5.9.73-3.93,4.06-7.06,8.02-7.57.1-.01.19-.05.3-.11-1.9-.37-3.44-1.28-4.56-2.86-1.12-1.58-1.48-3.35-1.11-5.24.68-3.39,3.71-5.65,7.22-5.43,3.17.2,5.94,2.95,6.2,6.16.28,3.5-2.04,6.71-5.79,7.41.27.05.54.1.81.16,4.5.88,7.7,4.74,7.71,9.33,0,1.37,0,2.73,0,4.14Z"></path><path class="st4" d="M419.39,215.79c-.97,2.59-.58,5.23-.69,7.86h-8.07c-.18-1.9.03-3.72,1.2-5.34,1.16-1.6,2.74-2.51,4.68-2.87-1.5-.33-2.7-1.06-3.58-2.29-1.28-1.79-1.33-4.2-.12-6.07,1.2-1.87,3.45-2.81,5.64-2.38,2.12.42,3.86,2.18,4.25,4.3.02.12.05.24.07.36.07.64.04,1.19-.52,1.7-1.02.93-1.8,2.07-2.34,3.34-.19.45-.47.7-.93.8-.26.06-.52.14-.9.24.49.12.87.22,1.32.34Z"></path><path class="st4" d="M445.36,215.4c4.53.84,6.31,4.7,5.87,8.25h-8.1c0-1.3.06-2.62-.02-3.94-.08-1.31-.31-2.61-.48-3.97.27-.07.66-.16,1.13-.28-.45-.14-.84-.23-1.2-.38-.18-.08-.39-.25-.47-.43-.66-1.48-1.59-2.76-2.74-3.89-.16-.16-.27-.44-.28-.66-.08-2.77,2.1-5.22,4.85-5.48,2.8-.27,5.38,1.64,5.89,4.36.56,2.97-1.29,5.72-4.28,6.38-.06.01-.11.03-.17.04Z"></path><path class="st4" d="M454.07,192.62c-.86.79-1.67,1.54-2.48,2.27-.53.49-1.06.99-1.61,1.46-.24.21-.28.41-.22.71.3,1.63.57,3.26.85,4.89.01.09,0,.18,0,.32-.41-.21-.79-.41-1.17-.61-1.16-.61-2.32-1.21-3.47-1.83-.28-.15-.49-.16-.78,0-1.4.76-2.82,1.49-4.23,2.24-.13.07-.27.13-.48.23.11-.69.21-1.32.32-1.95.19-1.13.41-2.25.58-3.38.03-.18-.08-.44-.21-.58-1.14-1.14-2.3-2.26-3.46-3.38-.11-.1-.24-.18-.36-.26.02-.04.04-.09.06-.13.84-.12,1.67-.25,2.51-.37.91-.13,1.81-.27,2.72-.39.29-.04.44-.17.56-.43.76-1.57,1.54-3.13,2.35-4.77.11.19.19.32.25.46.71,1.43,1.42,2.86,2.11,4.29.13.27.29.41.59.45,1.64.21,3.28.44,4.92.67.19.03.37.07.64.11Z"></path><path class="st4" d="M425.83,193.07c.18-1.09.35-2.08.52-3.07.13-.76.29-1.51.39-2.27.02-.18-.07-.44-.21-.58-1.14-1.14-2.3-2.26-3.46-3.38-.11-.1-.24-.18-.36-.28.02-.04.03-.08.05-.12.82-.12,1.64-.25,2.46-.37.91-.13,1.81-.27,2.72-.38.31-.04.49-.18.63-.47.68-1.42,1.38-2.84,2.08-4.25.07-.14.15-.28.26-.48.1.17.18.29.24.42.69,1.4,1.4,2.8,2.06,4.21.19.4.45.53.84.58,1.64.22,3.27.47,4.91.71.03,0,.06.02.16.04-.12.12-.21.23-.3.32-1.15,1.13-2.3,2.26-3.47,3.37-.23.22-.3.43-.24.75.3,1.63.57,3.26.85,4.89.01.09,0,.18,0,.32-.92-.48-1.81-.95-2.7-1.41-.67-.35-1.34-.69-1.99-1.06-.25-.14-.44-.15-.7,0-1.4.76-2.82,1.49-4.23,2.23-.14.08-.29.15-.52.27Z"></path></g></g><g><text class="st7" transform="translate(276.8 249.34)"><tspan x="0" y="0">IN</tspan></text><g><g><path class="st4" d="M277.2,214.54c.3-.5.52-.87.73-1.24.49.25.55.59.47,1.04-.32,1.75-.61,3.51-.91,5.26-.02.12-.04.27.02.36.51.81,1.04,1.61,1.65,2.53.26-.38.42-.69.65-.94.96-1.04,1.17-2.19.79-3.57-.32-1.16-.4-2.39-.63-3.57-.09-.47-.06-.83.45-1.1.21.35.43.71.69,1.16.12-.19.24-.32.31-.48.45-.99.9-1.98,1.33-2.97.15-.34.31-.48.71-.42,3.33.46,5.55,2.96,5.55,6.32,0,1.44,0,2.89,0,4.33,0,1.44-.92,2.4-2.36,2.41-4.98.02-9.95.02-14.93,0-1.48,0-2.39-.97-2.38-2.44.01-1.8-.06-3.61.11-5.4.27-2.8,2.83-5.11,5.64-5.22.15,0,.38.17.45.32.47,1,.91,2.01,1.37,3.01.08.17.17.33.31.61Z"></path><path class="st4" d="M272.61,208.25c.3-1.89.54-3.7.91-5.49.23-1.12.52-2.28,1.06-3.28,1.89-3.48,6.73-3.6,8.79-.21.57.94.95,2.04,1.21,3.11.43,1.85.7,3.73,1.05,5.66-.64.05-1.34.11-2.04.15-.61.03-1.14.15-1.68.53-1.7,1.23-3.83,1.16-5.6-.06-.23-.16-.54-.25-.82-.27-.99-.07-1.98-.11-2.87-.15ZM278.96,200.71c-1.18,1.34-2.46,2.46-3.93,3.36-.91.56-.91.56-.55,1.56.78,2.15,2.64,3.62,4.63,3.63,3.45,0,5.23-3.5,5.12-5.76-1.95-.5-3.71-1.38-5.26-2.78Z"></path><path class="st4" d="M279.17,221.87c-.44-.67-.85-1.26-1.21-1.86-.09-.15-.1-.38-.07-.55.29-1.77.59-3.54.89-5.32.01-.07.05-.13.08-.23h.68c.13.81.27,1.63.41,2.45.18,1.05.36,2.1.53,3.16.02.16,0,.36-.07.5-.37.6-.78,1.19-1.22,1.85Z"></path><path class="st4" d="M276.59,209.68c.77.78,1.5,1.5,2.22,2.23-.54.58-1.09,1.17-1.66,1.77-.44-.99-.89-1.98-1.32-2.99-.05-.11,0-.31.07-.39.2-.22.44-.4.69-.62Z"></path><path class="st4" d="M281.17,213.68c-.55-.59-1.09-1.17-1.67-1.79.75-.71,1.53-1.45,2.31-2.19.07.04.12.06.16.09q.67.63.28,1.49c-.36.81-.72,1.61-1.08,2.4Z"></path><path class="st4" d="M278.3,212.96c.06-.07.13-.15.2-.23.64-.62.71-.61,1.36,0,.26.25.18.42-.04.6-.47.39-1.18.22-1.52-.38Z"></path></g><g><path class="st4" d="M258.83,223.56c1.79-2.8,3.58-5.6,5.41-8.45-.3-.2-.57-.39-.84-.57.03-.03.05-.07.07-.07.75-.02.74-.02.66-.77-.09-.94-.16-1.88-.24-2.89,1.18.32,2.11.95,2.87,1.82.98,1.13,1.51,2.45,1.52,3.95,0,1.59.01,3.18,0,4.76,0,1.25-.85,2.23-2.1,2.26-2.41.06-4.82.03-7.22.03-.03,0-.06-.03-.13-.08Z"></path><path class="st4" d="M253.05,210.81c-.09.96-.16,1.86-.25,2.76-.09.87-.1.87.81.91-.19.13-.32.22-.45.31-.13.09-.26.18-.45.31,1.81,2.83,3.61,5.65,5.46,8.55-.31,0-.53,0-.76,0-2.02,0-4.03-.05-6.05.01-1.72.05-2.8-1.07-2.72-2.68.07-1.44,0-2.89.02-4.33.03-2.58,1.58-4.82,3.94-5.71.13-.05.26-.08.45-.13Z"></path><path class="st4" d="M253.21,202.35c0-.75-.07-1.43.01-2.1.18-1.47.96-2.59,2.24-3.33,1.01-.59,2.08-1.04,3.28-.99,1.33.05,2.23.83,2.94,1.89.11.16.21.34.36.45,1.43,1.04,2.01,2.36,1.33,4.09.8.09,1.11.36,1.17,1,.07.77-.27,1.3-.94,1.54-.15.06-.3.26-.35.43-.58,1.78-1.62,3.14-3.46,3.71-2.48.77-5.05-.69-5.96-3.35-.14-.41-.22-.77-.76-.93-.53-.16-.7-.74-.68-1.28.02-.57.28-.99.83-1.1ZM262.8,203.77c-.1-.13-.16-.17-.16-.21.02-.92-.45-1.61-1.02-2.28-.23-.27-.37-.62-.56-.97-1.2,1.15-2.57,1.83-4.19,2.18.16-.35.28-.61.44-.97-.99.49-1.88.31-2.81.1-.1.4-.18.76-.29,1.12-.1.34-.22.68-.33,1.01-.05,0-.1,0-.15-.01-.14-.34-.29-.69-.43-1.04-.53.15-.61.51-.57.93.03.42.22.87.64.86.54-.01.55.3.64.63.04.14.07.27.12.41.67,1.97,2.34,3.28,4.26,3.34,1.84.05,3.58-1.21,4.32-3.17.14-.38.24-.77.36-1.15.88-.06,1.36-.7,1.05-1.41-.08-.18-.32-.4-.49-.39-.2,0-.43.19-.58.37-.13.15-.16.38-.26.66Z"></path><path class="st4" d="M262.23,209.96c.33.17.71.35,1.09.55.09.05.21.17.22.27.1,1.08.19,2.16.28,3.31h-1.4c-.02.06-.05.12-.07.17.46.31.92.62,1.41.96-1.71,2.68-3.42,5.34-5.12,8.01-.04-.01-.09-.03-.13-.04.05-.26.08-.52.16-.77,1.14-3.37,2.32-6.73,3.4-10.11.23-.71.11-1.52.16-2.35Z"></path><path class="st4" d="M258.07,222.87c-1.63-2.54-3.26-5.09-4.9-7.66.49-.32.95-.62,1.42-.92l-.04-.17h-1.42c.1-1.17.18-2.25.28-3.33,0-.1.11-.22.2-.27.37-.2.75-.38,1.15-.58.02.1.05.16.04.2-.35,1.32.13,2.52.55,3.73.94,2.73,1.86,5.46,2.78,8.19.08.24.07.51.09.77-.05.01-.1.03-.16.04Z"></path><path class="st4" d="M258.01,215.58q.99-.09,1.14.87c.11.72.22,1.44.32,2.16.02.14.02.29-.02.42-.31.92-.63,1.84-.93,2.72-1.18-1.95-1.19-4.01-.5-6.17Z"></path><path class="st4" d="M258.04,213.66c-.58.52-1.18,1.07-1.82,1.65-.25-.72-.44-1.49-.77-2.2-.46-1.02-.47-2.05-.26-3.11.03-.13.1-.25.16-.38.93,1.4,1.82,2.74,2.69,4.04Z"></path><path class="st4" d="M261.54,209.66s.13.04.14.08c.09.67.34,1.38.2,2-.28,1.22-.77,2.39-1.17,3.57-.63-.58-1.23-1.12-1.82-1.65.86-1.3,1.75-2.64,2.66-4Z"></path><path class="st4" d="M257.12,217.93c-.23-.66-.57-1.31-.64-1.99-.04-.35.42-.75.65-1.13.08,0,.15.02.23.03.06.34.18.68.16,1.01-.06.69-.2,1.36-.3,2.05-.03.01-.06.02-.1.03Z"></path><path class="st4" d="M259.68,217.91c.07-1.01-.64-2.02,0-3.15.28.34.51.6.72.88.07.1.1.27.06.38-.2.64-.42,1.27-.64,1.9-.05,0-.09,0-.14-.01Z"></path><path class="st4" d="M257.57,214.56c.78-.77.89-.77,1.78.05-.12.27-.18.59-.61.58-.48-.02-1.03.13-1.17-.63Z"></path></g><g><path class="st4" d="M316.06,211.67c-.92-.53-1.84-1.05-2.76-1.57.36-.85.69-1.58.97-2.32.7-1.85.96-3.79,1.21-5.73.29-2.2,1.32-3.99,3.2-5.2,2.63-1.7,5.91-.91,7.83,1.83.83,1.19,1.18,2.52,1.33,3.95.25,2.55.86,5.01,2.15,7.43-.94.54-1.85,1.07-2.76,1.59.09.04.25.11.4.19,2.13,1.07,3.28,2.8,3.36,5.18.05,1.48.01,2.96,0,4.44,0,1.28-.85,2.19-2.12,2.2-4.82.01-9.63,0-14.45-.01-1.24,0-2.06-.87-2.07-2.11,0-1.43,0-2.85,0-4.28,0-2.56,1.2-4.37,3.48-5.48.09-.04.17-.09.22-.11ZM316.38,204.64c.4.92.68,1.82,1.15,2.59,1.67,2.71,4.93,3.22,7.23,1.18,1.22-1.08,1.81-2.49,2.02-4.07.02-.15-.1-.36-.22-.47-.43-.4-.94-.73-1.31-1.17-.58-.69-1.08-1.44-1.64-2.19-1.89,2.06-4.25,3.44-7.23,4.14ZM322.17,215.21c.71-.89,1.3-1.85,1.63-2.95-.18-.03-.31-.04-.43-.06.17-.5.35-.94.49-1.4.13-.44.22-.89.35-1.45-1.78.94-3.43.9-5.08.04-.04.03-.07.06-.11.09.27.91.54,1.82.81,2.73-.08.03-.18.07-.38.15.58,1.02,1.12,1.98,1.64,2.89-.53.26-1.07.52-1.64.8-.54-1.09-.81-2.29-.85-3.55,0-.27,0-.52-.44-.41-.05,1.72.38,3.32,1.26,4.88.54-.87,1.33-1.25,2.23-1.26.92-.01,1.71.4,2.29,1.24.88-1.56,1.29-3.15,1.27-4.85-.42-.03-.43-.03-.45.35-.08,1.27-.29,2.49-.86,3.59-.58-.29-1.13-.55-1.72-.84ZM322.33,216.88c-.31-.21-.51-.44-.67-.41-.18.03-.32.29-.48.45.18.16.33.42.53.46.14.03.33-.25.62-.49ZM321.65,218.64c-.22.32-.47.53-.44.68.04.18.32.32.49.47.14-.17.39-.33.4-.5,0-.17-.23-.35-.45-.65ZM321.67,221.05c-.23.3-.5.51-.46.65.04.19.31.34.48.5.15-.16.4-.32.41-.5.02-.16-.22-.35-.43-.66Z"></path><path class="st4" d="M322.33,216.88c-.29.24-.49.52-.62.49-.2-.04-.36-.29-.53-.46.16-.16.3-.42.48-.45.16-.02.36.21.67.41Z"></path><path class="st4" d="M321.65,218.64c.22.3.45.48.45.65,0,.17-.25.33-.4.5-.17-.15-.45-.29-.49-.47-.03-.15.22-.36.44-.68Z"></path><path class="st4" d="M321.67,221.05c.21.3.45.49.43.66-.02.18-.27.33-.41.5-.17-.17-.44-.31-.48-.5-.03-.14.23-.34.46-.65Z"></path></g><g><path class="st4" d="M298.55,213.85c.31-.52.55-.92.79-1.32.56.28.57.68.48,1.18-.32,1.77-.61,3.54-.93,5.31-.08.43,0,.78.26,1.14.5.69.94,1.41,1.46,2.2.15-.17.26-.27.34-.39.38-.56.72-1.15,1.14-1.68.37-.47.4-.93.3-1.48-.33-1.77-.6-3.54-.93-5.31-.09-.47.18-.68.52-.95.25.41.49.81.78,1.29.13-.23.24-.39.31-.55.5-1.1,1-2.2,1.48-3.32.13-.3.3-.38.61-.35,3.55.39,6.03,3.13,6.04,6.71,0,1.62,0,3.25,0,4.87,0,1.36-.9,2.43-2.25,2.44-5.55.04-11.09.04-16.64,0-1.26,0-2.21-1.1-2.22-2.37-.01-1.75-.02-3.5,0-5.24.04-3.33,2.82-6.22,6.14-6.4.16,0,.41.17.49.33.52,1.09,1,2.2,1.5,3.31.08.17.18.33.32.59ZM306.57,217.55c-.41,0-.82-.03-1.23.02-.15.02-.39.21-.4.34-.03.67-.04,1.36.02,2.03.07.79.72,1.36,1.5,1.41.76.05,1.47-.49,1.63-1.26.07-.31.07-.64.07-.95q0-1.58-1.6-1.58Z"></path><path class="st4" d="M306.16,202.79c-.07,1.79-.72,3.42-2.22,4.62-2.2,1.77-5.21,1.54-7.14-.53-2.16-2.31-2.17-6.06-.03-8.37,2.38-2.58,6.35-2.24,8.33.71.71,1.05,1.03,2.22,1.06,3.57Z"></path><path class="st4" d="M300.66,221.75c-.48-.72-.92-1.39-1.35-2.06-.05-.08-.09-.2-.08-.3.35-2.07.7-4.13,1.05-6.17.56-.16.79-.04.88.55.26,1.79.6,3.58.9,5.36.03.17.06.39-.02.51-.43.69-.89,1.37-1.37,2.1Z"></path><path class="st4" d="M298.51,212.95c-.51-1.14-1.03-2.3-1.56-3.47.32-.28.62-.54.94-.82.8.83,1.58,1.65,2.35,2.44-.53.57-1.12,1.2-1.73,1.85Z"></path><path class="st4" d="M302.82,212.95c-.59-.63-1.16-1.25-1.79-1.93.8-.76,1.64-1.56,2.47-2.35.05.02.07.02.08.03q.84.7.4,1.68c-.39.87-.78,1.73-1.16,2.58Z"></path><path class="st4" d="M301.64,212.21c-.41.65-1.25.79-1.72.3-.19-.2-.23-.35,0-.58.71-.69.87-.68,1.72.28Z"></path><path class="st4" d="M306.57,217.55q1.6,0,1.6,1.58c0,.32,0,.64-.07.95-.17.77-.88,1.31-1.63,1.26-.78-.05-1.43-.62-1.5-1.41-.06-.67-.05-1.35-.02-2.03,0-.12.25-.32.4-.34.4-.05.82-.02,1.23-.02ZM305.32,218.51c0,.48-.03.93,0,1.36.06.61.59,1.07,1.2,1.07.62,0,1.17-.43,1.23-1.04.04-.45,0-.92,0-1.4h-2.45ZM305.37,217.98s0,.06,0,.09h2.34s0-.06,0-.09h-2.34Z"></path><path class="st4" d="M305.32,218.51h2.45c0,.49.03.95,0,1.4-.06.61-.61,1.04-1.23,1.04-.61,0-1.14-.46-1.2-1.07-.04-.44,0-.88,0-1.36Z"></path><path class="st4" d="M305.37,217.98h2.34s0,.06,0,.09h-2.34s0-.06,0-.09Z"></path></g></g></g></svg>