<?xml version="1.0" encoding="UTF-8"?>
<svg id="Layer_1" data-name="Layer 1" xmlns="http://www.w3.org/2000/svg" version="1.1" viewBox="0 0 1080 1080">
  <defs>
    <style>
      .cls-1 {
        fill: #010101;
        stroke-width: 0px;
      }
    </style>
  </defs>
  <path class="cls-1" d="M175.54,633.81c-8.09,6.17-35.29,19.03-43.54,21.09s-21.1-8.03-35.54-1.84c-14.44,6.19-19.07,20.16-14.44,30.95,4.63,10.79,22.69,14.78,35.07,10.66,12.38-4.13,12.69-16.01,23.01-13.94,10.32,2.06,23.76-6.69,29.95-6.69,2.31-13.88,3.43-28.84,5.5-40.23Z"/>
  <path class="cls-1" d="M151.47,714.27c-10.79-3.08-21.62,2.73-25.47,8.9-3.86,6.17-7.27,18.45,6.22,23.08,4.81-11.69,11.55-21.19,19.26-31.98Z"/>
  <path class="cls-1" d="M410.73,513.46c-37.95-32.69-44.77-47.81-57.1-51.66-12.33-3.85-37-6.55-46.64-5.78-9.64.77-20.43-21.2-35.08-20.81-14.65.39-30.84-1.93-45.1,21.59-14.26,23.51-26.59,61.28-33.92,113.32-7.32,52.04-13.11,124.11-20.81,132.59-7.71,8.48-31.22,42.78-36.62,58.59-5.4,15.8-14.65,34.31-32.76,46.25-18.12,11.95-34.31,21.97-41.63,23.9-7.32,1.93-23.13-3.85-35.46,2.7-15.52,8.25-21.55,24.09-12.72,37.77,7.71,11.95,27.75,16.19,40.47,8.87,12.72-7.32,14.33-24.37,16.26-25.52,1.93-1.16,19.26-8.34,31.98-7.57,12.72.77,23.84-7.39,28.85-14.32,5.01-6.94,13.1-18.89,26.21-16.57,13.1,2.31,10.02,18.5,6.55,26.21-3.47,7.71,18.89,12.72,10.79,18.5-8.09,5.78-18.89,18.11-15.03,29.68,3.85,11.56,21.97,18.5,36.23,17.35,13.56-1.1,34.5-12.1,33.15-27.37-1.16-13.1-8.09-18.11-11.56-20.04,0,0,.39-10.02,1.93-21.59,1.54-11.56,8.09-24.28,26.6-26.98,18.5-2.7,30.84,0,40.09,12.72,9.25,12.72,26.98,18.89,41.24,18.5,21.44-.58,36.64-16.73,35.46-29.29-1.16-12.33-17.28-21.16-31.16-20.77-13.88.39-30.9.34-43.24-7.36-12.33-7.71-15.42-16.96-2.7-16.57,12.72.38,26.98,2.31,31.6,1.54,4.63-.77,16.19-17.73,2.31-25.44-13.88-7.71-35.85-5.78-53.96-14.65-18.12-8.87-29.68-20.43-27.75-32.76,1.93-12.33,18.89-66.3,27.75-89.42,8.87-23.13,11.56-48.57,8.48-64.37-3.08-15.8,15.42-26.98,33.15-26.21,17.73.77,42.78,8.1,61.28,6.55,18.5-1.54,32.05-4.99,42.84-11.55Z"/>
  <path class="cls-1" d="M627.29,585.53c-32.6-10.86-74.53-15.26-93.81-16.36-19.24-1.1-29.54-2.52-44.95-10.23-15.42-7.71-50.5-24.67-69.38-37.77-8.08,5.03-24.49,11.97-44.87,13.97-17.54,1.72-32.32,0-45.33-3.56,0,0-13.11,18.89-45.1,38.54,0,0,.39,10.79-5.01,29.29-5.4,18.5-17.69,47.47-24.67,70.92-2.69,9.06-6.94,19.27-6.17,25.05,0,0,25.44-22.74,35.08-19.27,9.64,3.47-.77,28.52,6.17,35.08,6.94,6.55,18.5,14.65,18.12,21.2,0,0,14.02,2.02,19.81,6.65,6.39,5.11,8.25,10.66,7.91,14.1,0,0,22.4-1.86,27.79-16.12,5.4-14.26,0-30.45-12.72-33.92-12.72-3.47-18.5-7.32-23.51-33.92,0,0,7.71-3.08,12.72-9.25,5.01-6.17,2.31-16.58,8.09-19.66,5.78-3.08,20.81-5.4,28.52-.77,7.71,4.63,11.56,15.03,30.84,16.96,19.27,1.93,32.38-13.11,30.84-23.9-1.54-10.79-10.41-13.11-18.12-11.95-7.71,1.16-18.12,0-23.13-3.47-5.01-3.47-10.41-7.71-18.12-8.48,0,0,23.9-15.42,41.24-19.27,17.35-3.85,23.51-3.08,32.38,4.24,8.87,7.32,56.28,15.42,102.14,11.56,45.87-3.85,73.24-19.66,73.24-19.66Z"/>
  <path class="cls-1" d="M678.59,592.54c1.16,30.06-6.21,67.76-14.31,92.43-8.09,24.67-30.84,66.68-38.93,72.08-8.1,5.4-8.1-2.7-13.11-8.1-5.01-5.4-18.12-5.39-26.98-.77-8.86,4.62-15.42,21.58-.38,28.91,0,0-8.87,1.92-18.89,6.94-10.02,5.01-16.58,13.11-24.67,10.02-8.09-3.08-12.33-10.79-23.51-11.18-11.18-.39-29.29,11.95-33.53,11.56-4.24-.38-7.71-10.02-25.44-9.64-17.73.38-30.45,15.8-28.52,28.14,1.93,12.33,16.57,21.58,33.15,21.2,16.57-.38,17.35-12.72,41.24-14.65,23.9-1.93,26.6,8.1,26.6,8.1,0,0-19.66,18.5-25.83,23.13-6.17,4.62-12.33-.39-19.27,3.47-6.94,3.85-5.4,12.33-19.66,10.02-14.26-2.31-48.57,1.16-48.95,26.21-.39,25.05,25.83,33.53,44.33,29.68,18.5-3.85,25.05-18.89,25.05-23.51s24.67-6.94,45.1-14.26c20.43-7.32,39.32-20.43,44.71-10.02,5.4,10.41-.77,22.36-5.4,22.36s-19.66,10.79-17.73,26.98c1.93,16.19,20.43,25.83,41.63,23.13,21.2-2.7,36.62-15.42,35.08-28.14-1.54-12.72-11.95-14.65-13.49-17.35-1.54-2.7,3.85-12.33,7.71-18.5,3.85-6.17,9.64-18.89,9.64-23.51s27.75-12.72,43.94-26.21c16.19-13.49,21.58-16.96,22.36-31.61s9.25-48.57,15.03-62.44c5.78-13.88,26.98-71.3,38.16-99.06,11.18-27.75,18.5-43.56,16.58-53.58-1.93-10.02-10.54-18.3-10.54-18.3-3.35,7.64-11.69,14.79-23.04,19.6-11.35,4.81-32.32,9.28-58.11,6.88Z"/>
  <path class="cls-1" d="M798.8,484.92c22.36,14.26,69.38,53.19,75.55,77.09,6.17,23.9,4.63,32.38,10.02,37,5.4,4.62,19.27,10.79,23.51,24.28,4.24,13.49,5.4,28.52,21.2,40.09,15.8,11.56,47.8,25.06,58.59,25.83,10.79.77,23.91,8.1,25.83,12.34,0,0,8.62-5.96,27.51-1.72,18.89,4.24,31.07,13.28,29.15,26-1.93,12.72-19.66,23.13-38.16,20.43-18.5-2.7-28.52-12.72-29.29-20.04-.77-7.32-19.66-13.1-31.22-11.18-11.56,1.93-47.94.45-58.73-7.64,0,0-13.35,11.11-11.81,24.99,1.07,9.65,11.94,5.4,13.49,21.97,1.16,12.33-13.1,28.9-37,26.98-23.9-1.93-33.15-13.49-33.53-24.28-.57-16.12,16.05-22.51,17.73-26.98,1.16-3.08-4.24-23.13-10.79-25.44-6.55-2.31-26.45,1.74-45.48-1.93-6.47-1.25-18.12,6.55-18.12,11.95s-3.96,22.76-21.31,25.07c-17.35,2.31-29.45-3.83-30.6-16.16-1.24-13.24,10.22-23.59,19.81-24.31,8.08-.61,6.17-15.42,13.11-16.96,6.94-1.54,19.77-3.87,14.76-10.42-5.01-6.55-12.19-12.41-28.76-4.7,4.81-13.07,7.32-20.55,11.69-29.57,0,0,3.97.35,10.9-7.74,6.94-8.09,7.71-16.19,14.65-16.57,6.94-.38,1.93-16.57-11.56-17.34,0,0,4.24-10.02.77-17.73-3.47-7.71-6.16-11.1-9.94-17.64,11.38-2.57,18.57-9.28,24.41-22.35,4.21-9.41,5.5-33.35,3.64-53.29Z"/>
  <path class="cls-1" d="M675.5,105.99c-15.13-3.44-37.14,3.44-49.51,9.97-2.06-10.66-1.38-22.35,5.16-33.01,6.53-10.66,12.38-13.91,17.5-14.95,3.11-.63,5.61.48,6.91,3.6,13.41-4.47,50.89-6.53,74.27,20.63,23.38,27.17,13.07,59.14,6.53,71.87-3.09-1.38-6.53-2.75-9.97-3.09,5.16-11.35,11-28.88,4.82-41.26,0,0-3.44,11-8.25,18.57,0,0-10.32-18.57-19.94-31.63-9.63-13.07-11-24.76-11-24.76-6.88-2.75-21.84-3.95-30.78-.52l14.27,24.59Z"/>
  <path class="cls-1" d="M703.01,268.29c-1.37-15.82-9.63-19.94-19.94-10.32-10.32,9.63-18.57,21.32-26.82,23.38s-31.64,4.81-46.08,31.63c0,0,17.88,7.57,22.69,35.76,4.82,28.2-15.13,46.76-15.13,46.76,0,0,19.26-2.06,44.01,11.69,24.76,13.75,46.76,56.39,55.7,72.9,8.94,16.5,35.07,25.45,42.64-1.38,0,0,16.5,37.82-7.57,37.14-24.07-.69-71.52-61.2-94.21-72.21-22.69-11-50.2-16.51-91.47-5.5-41.26,11-67.39,21.32-93.53,15.13,0,0-4.81,28.88,45.39,44.01,0,0-50.2,4.13-70.15-25.45-19.94-29.57-33.01-53.64-46.08-57.77-13.07-4.13-17.88-11-1.38-15.13,16.5-4.13,70.15-40.57,104.53-65.33,34.38-24.76,90.09-56.39,113.47-62.58,23.38-6.19,33.7-3.44,33.7-3.44,0,0,12.38-17.19,32.32-24.07,19.94-6.88,37.14-21.32,41.95-36.45,0,0,4.81,19.94-6.19,36.45-11,16.5-17.88,24.76-17.88,24.76Z"/>
  <path class="cls-1" d="M626.67,519.99c19.94,3.44,46.77,17.88,60.52,20.63s30.95-7.57,26.82-18.57c-4.13-11-15.13-4.13-26.13,2.06-11,6.19-61.21-4.13-61.21-4.13Z"/>
  <path class="cls-1" d="M785.53,453.28c-5.5-19.94-24.76-72.9-34.39-90.09-9.63-17.19-26.82-77.02-22.01-85.96,4.81-8.94,29.57-44.01,25.44-72.9s-29.57-35.76-37.82-35.76-17.19-44.7-38.51-50.2c-21.32-5.5-39.89,2.75-51.58,10.32,0,0-6.87-9.63-38.51-2.75-31.64,6.88-88.71,35.07-100.41,35.07s-45.14-17.05-69.8-22.35c-31.98-6.88-84.24,8.6-100.75,55.36-16.5,46.76,8.94,79.09,8.25,88.71-.69,9.63-13.07,30.95-14.44,44.7-1.38,13.75,6.53,27.51-1.03,38.17-7.65,10.77-14.79,18.22-13.41,38.17,1.38,19.94,11,35.42,23.73,37.14,13.63,1.84,33.35-.69,43.67,11.69,10.32,12.38,54.64,56.1,75.99,69.11,22.01,13.41,64.96,34.23,82.87,35.07,21.93,1.03,71.94,6.45,98,14.79,25.79,8.25,65.27,11.41,88.37,7.56,28.88-4.81,37.14-15.13,40.58-24.07,17.88-2.75,35.76-9.63,37.82-32.32,2.06-22.69,3.44-49.52-2.06-69.46ZM677.95,132.05c15.47,6.19,1.03,30.69,1.03,30.69-7.22-13.67-9.27-33.98-1.03-30.69ZM608.82,147.94c16.5,0,24.76,28.88,24.76,28.88-14.44-16.5-25.79-16.5-36.1-17.54-10.32-1.03-5.16-11.35,11.35-11.35ZM399.21,156.88c35.88,0,65.35,27.41,68.63,62.44-9.97,22.11-27.73,42.4-51.83,56.62-12.42,7.33-25.43,12.39-38.44,15.34-27.47-9.08-47.31-34.94-47.31-65.46,0-38.08,30.87-68.94,68.94-68.94ZM773.84,522.06c-7.56,9.63-22.01,8.94-22.01,8.94,0,0-2.75,17.19-26.82,26.82-24.07,9.63-66.71,2.06-122.41-13.75-55.7-15.82-96.28-14.44-126.54-19.26-30.26-4.81-55.7-42.64-67.39-63.27-11.69-20.63-22.69-33.7-41.95-41.95-19.26-8.25-25.44-28.88-25.44-28.88,35.76,3.44,92.15-33.01,153.36-74.96,61.2-41.95,95.59-69.46,109.35-78.4,13.75-8.94,24.76-15.82,39.2-15.13,13.03.62,31.64-6.19,40.58-22.01,0,0,9.63,4.81,20.63,2.06,11-2.75,12.38-17.19,29.57-6.19,17.19,11,1.38,55.02-10.32,68.77-11.69,13.75-3.44,32.32,3.44,59.83,6.88,27.51,28.2,69.46,44.01,107.97,15.82,38.51,10.32,79.77,2.75,89.4Z"/>
  <path class="cls-1" d="M419.77,204.26c-7.11-21.97-37.48-22.62-37.48-22.62,0,0-25.2,21.97-13.57,45.88,11.63,23.91,38.77,29.08,38.77,29.08,0,0,19.39-30.37,12.28-52.34ZM405.92,233.91c-4.56,0-8.25-3.7-8.25-8.25s3.7-8.25,8.25-8.25,8.25,3.7,8.25,8.25-3.7,8.25-8.25,8.25Z"/>
</svg>